<svg width="48" height="48" viewBox="0 0 48 48" fill="none" xmlns="http://www.w3.org/2000/svg">
    <foreignObject x="-32" y="-32" width="112" height="112"><div xmlns="http://www.w3.org/1999/xhtml" style="backdrop-filter:blur(16px);clip-path:url(#bgblur_0_303_15747_clip_path);height:100%;width:100%"></div></foreignObject><g data-figma-bg-blur-radius="32">
    <rect width="48" height="48" rx="24" fill="white"/>
    <path d="M22.47 18.0247C22.476 17.9918 22.524 17.9918 22.53 18.0247C22.7037 18.8732 23.1228 19.6519 23.7352 20.2642C24.3477 20.8764 25.1265 21.2953 25.975 21.4687C26.008 21.4757 26.008 21.5238 25.975 21.5308C25.1267 21.7044 24.3481 22.1233 23.7358 22.7356C23.1236 23.3478 22.7046 24.1265 22.531 24.9748C22.524 25.0078 22.476 25.0078 22.469 24.9748C22.2956 24.1263 21.8767 23.3474 21.2644 22.735C20.6521 22.1225 19.8734 21.7034 19.025 21.5297C18.992 21.5227 18.992 21.4748 19.025 21.4678C19.8733 21.2941 20.6519 20.8752 21.2642 20.2629C21.8764 19.6507 22.2954 18.872 22.469 18.0238M29 27.4998V25.4998L31.6 22.0328C31.7678 21.8087 32.0019 21.6431 32.2691 21.5595C32.5362 21.476 32.8229 21.4786 33.0885 21.5672C33.3541 21.6557 33.5851 21.8256 33.7487 22.0527C33.9123 22.2799 34.0002 22.5528 34 22.8328V30.1667C34.0002 30.4467 33.9123 30.7196 33.7487 30.9468C33.5851 31.1739 33.3541 31.3438 33.0885 31.4323C32.8229 31.5209 32.5362 31.5235 32.2691 31.44C32.0019 31.3564 31.7678 31.1908 31.6 30.9667L29 27.4998Z" stroke="black" stroke-width="1.5" stroke-linecap="round" stroke-linejoin="round"/>
    <path d="M17.552 19C16.649 19.117 15.994 19.344 15.462 19.78C15.2596 19.9464 15.074 20.1323 14.908 20.335C14 21.44 14 23.085 14 26.372C14 29.659 14 31.432 14.908 32.538C15.0747 32.7407 15.2593 32.9253 15.462 33.092C16.57 34 18.212 34 21.5 34C24.787 34 26.431 34 27.538 33.092C27.7407 32.9253 27.9253 32.7407 28.092 32.538C29 31.43 29 29.788 29 26.5C29 24.318 29 22.86 28.735 21.803" stroke="black" stroke-width="1.5" stroke-linecap="round" stroke-linejoin="round"/>
    <path d="M27.12 14.3097C27.205 13.8968 27.795 13.8968 27.88 14.3097C27.9709 14.7557 28.1909 15.1651 28.5128 15.487C28.8346 15.8088 29.244 16.0289 29.69 16.1198C30.103 16.2048 30.103 16.7948 29.69 16.8798C29.244 16.9706 28.8346 17.1907 28.5128 17.5125C28.1909 17.8344 27.9709 18.2438 27.88 18.6898C27.795 19.1028 27.205 19.1028 27.12 18.6898C27.0291 18.2438 26.809 17.8344 26.4872 17.5125C26.1654 17.1907 25.756 16.9706 25.31 16.8798C24.897 16.7948 24.897 16.2048 25.31 16.1198C25.756 16.0289 26.1654 15.8088 26.4872 15.487C26.809 15.1651 27.0291 14.7557 27.12 14.3097Z" fill="black"/>
</g>
    <defs>
        <clipPath id="bgblur_0_303_15747_clip_path" transform="translate(32 32)"><rect width="48" height="48" rx="24"/>
        </clipPath></defs>
</svg>
