<svg width="48" height="48" viewBox="0 0 48 48" fill="none" xmlns="http://www.w3.org/2000/svg">
    <rect x="0.5" y="0.5" width="47" height="47" rx="15.5" fill="#FD7B00"/>
    <rect x="0.5" y="0.5" width="47" height="47" rx="15.5" stroke="url(#paint0_linear_303_15736)" style="mix-blend-mode:plus-lighter"/>
    <path d="M15.478 14.4048C15.3481 14.367 15.2103 14.3651 15.0794 14.3993C14.9484 14.4335 14.8292 14.5025 14.7342 14.5989C14.6393 14.6954 14.5722 14.8158 14.5402 14.9472C14.5081 15.0787 14.5122 15.2164 14.552 15.3458L16.984 23.2508H25.5C25.6989 23.2508 25.8897 23.3298 26.0304 23.4704C26.171 23.6111 26.25 23.8019 26.25 24.0008C26.25 24.1997 26.171 24.3905 26.0304 24.5311C25.8897 24.6718 25.6989 24.7508 25.5 24.7508H16.984L14.552 32.6558C14.5124 32.7851 14.5085 32.9226 14.5407 33.054C14.5729 33.1853 14.64 33.3055 14.7348 33.4018C14.8297 33.4981 14.9489 33.567 15.0797 33.6011C15.2105 33.6353 15.3482 33.6334 15.478 33.5958C22.093 31.6721 28.331 28.6331 33.923 24.6098C34.0197 24.5403 34.0984 24.4489 34.1527 24.343C34.207 24.2371 34.2353 24.1198 34.2353 24.0008C34.2353 23.8818 34.207 23.7645 34.1527 23.6586C34.0984 23.5527 34.0197 23.4612 33.923 23.3918C28.331 19.3681 22.0931 16.3287 15.478 14.4048Z" fill="white"/>
    <defs>
        <linearGradient id="paint0_linear_303_15736" x1="24.3499" y1="0" x2="24.3499" y2="48" gradientUnits="userSpaceOnUse">
            <stop stop-color="white" stop-opacity="0.32"/>
            <stop offset="0.543269" stop-color="white" stop-opacity="0"/>
            <stop offset="1" stop-color="white" stop-opacity="0.32"/>
        </linearGradient>
    </defs>
</svg>
